<svg xmlns="http://www.w3.org/2000/svg" xmlns:xlink="http://www.w3.org/1999/xlink" width="500" zoomAndPan="magnify" viewBox="0 0 375 374.999991" height="500" preserveAspectRatio="xMidYMid meet" version="1.0"><defs><clipPath id="6af1e4c6a0"><path d="M 13.5 15.152344 L 358.5 15.152344 L 358.5 358.652344 L 13.5 358.652344 Z M 13.5 15.152344 " clip-rule="nonzero"/></clipPath></defs><path fill="#1800ad" d="M 19.234375 20.714844 L 273.371094 20.714844 L 273.371094 118.761719 C 188.65625 118.761719 103.941406 118.761719 19.234375 118.761719 C 19.234375 86.070312 19.234375 53.386719 19.234375 20.714844 Z M 174.488281 140.722656 L 219.621094 140.722656 L 219.621094 185.859375 L 174.488281 185.859375 Z M 206.210938 202.550781 L 251.34375 202.550781 L 251.34375 247.6875 L 206.210938 247.6875 Z M 142.765625 202.550781 L 187.902344 202.550781 L 187.902344 247.6875 L 142.765625 247.6875 Z M 307.234375 281.84375 C 293.421875 323.351562 254.285156 353.289062 208.136719 353.289062 C 155.378906 353.289062 111.746094 314.152344 104.695312 263.328125 L 289.449219 263.328125 C 289.597656 239.160156 311.351562 220.941406 335.15625 224.925781 C 336.734375 234.25 334.90625 244.035156 329.675781 252.300781 C 339.039062 254.523438 347.101562 260.105469 352.515625 267.714844 C 342.421875 281.890625 323.964844 287.910156 307.234375 281.84375 Z M 307.234375 281.84375 " fill-opacity="1" fill-rule="evenodd"/><g clip-path="url(#6af1e4c6a0)"><path fill="#5170ff" d="M 118.09375 86.449219 C 120.53125 88.292969 120.992188 91.78125 119.125 94.21875 C 117.28125 96.632812 113.792969 97.113281 111.355469 95.246094 L 83.808594 74.144531 C 80.847656 71.878906 80.972656 67.449219 83.890625 65.265625 L 111.355469 44.230469 C 113.792969 42.363281 117.273438 42.847656 119.125 45.28125 C 120.992188 47.695312 120.53125 51.1875 118.09375 53.050781 L 96.28125 69.738281 Z M 155.402344 42.882812 C 156.933594 40.214844 160.335938 39.3125 162.976562 40.867188 C 165.621094 42.402344 166.527344 45.777344 164.992188 48.421875 L 137.195312 96.585938 C 135.640625 99.253906 132.261719 100.15625 129.621094 98.625 C 126.976562 97.089844 126.070312 93.691406 127.605469 91.046875 Z M 181.226562 95.246094 C 178.8125 97.113281 175.324219 96.632812 173.457031 94.21875 C 171.613281 91.78125 172.074219 88.300781 174.511719 86.449219 L 196.300781 69.738281 L 174.511719 53.042969 C 172.074219 51.179688 171.613281 47.691406 173.457031 45.273438 C 175.324219 42.839844 178.8125 42.355469 181.226562 44.222656 L 208.714844 65.257812 C 211.632812 67.441406 211.757812 71.871094 208.792969 74.136719 Z M 50.175781 248.027344 C 47.113281 248.027344 44.617188 245.554688 44.617188 242.488281 C 44.617188 239.421875 47.113281 236.925781 50.175781 236.925781 L 86.203125 236.925781 C 89.269531 236.925781 91.765625 239.421875 91.765625 242.488281 C 91.765625 245.554688 89.269531 248.027344 86.203125 248.027344 Z M 50.175781 217.519531 C 47.113281 217.519531 44.617188 215.046875 44.617188 211.980469 C 44.617188 208.890625 47.113281 206.417969 50.175781 206.417969 L 122.234375 206.417969 C 125.300781 206.417969 127.796875 208.890625 127.796875 211.980469 C 127.796875 215.046875 125.300781 217.519531 122.234375 217.519531 Z M 50.175781 187.011719 C 47.113281 187.011719 44.617188 184.539062 44.617188 181.449219 C 44.617188 178.382812 47.113281 175.910156 50.175781 175.910156 L 122.234375 175.910156 C 125.300781 175.910156 127.796875 178.382812 127.796875 181.449219 C 127.796875 184.539062 125.300781 187.011719 122.234375 187.011719 Z M 50.175781 156.503906 C 47.113281 156.503906 44.617188 154.007812 44.617188 150.945312 C 44.617188 147.878906 47.113281 145.402344 50.175781 145.402344 L 122.234375 145.402344 C 125.300781 145.402344 127.796875 147.882812 127.796875 150.945312 C 127.796875 154.003906 125.300781 156.503906 122.234375 156.503906 Z M 19.234375 15.152344 L 273.371094 15.152344 C 276.4375 15.152344 278.910156 17.648438 278.910156 20.714844 L 278.910156 257.789062 L 284.289062 257.789062 C 287.539062 232.679688 311.054688 215.296875 336.082031 219.453125 C 338.519531 219.875 340.324219 221.824219 340.660156 224.132812 C 341.984375 232.761719 341.082031 241.058594 337.636719 249.078125 C 345.429688 252.292969 352.148438 257.648438 357.035156 264.507812 C 358.464844 266.519531 358.359375 269.164062 356.953125 271.054688 C 346.183594 285.6875 328.402344 292.679688 310.664062 288.628906 C 294.390625 330.578125 253.894531 358.859375 208.144531 358.859375 C 174.695312 358.859375 144.253906 343.867188 123.804688 319.433594 L 19.234375 319.433594 C 16.167969 319.433594 13.691406 316.960938 13.691406 313.894531 L 13.691406 20.714844 C 13.6875 17.648438 16.167969 15.152344 19.234375 15.152344 Z M 267.808594 26.277344 L 24.796875 26.277344 L 24.796875 113.191406 L 267.808594 113.191406 Z M 174.488281 135.175781 L 219.621094 135.175781 C 222.6875 135.175781 225.183594 137.648438 225.183594 140.738281 L 225.183594 185.871094 C 225.183594 188.9375 222.6875 191.414062 219.621094 191.414062 L 174.488281 191.414062 C 171.421875 191.414062 168.925781 188.9375 168.925781 185.871094 L 168.925781 140.738281 C 168.925781 137.65625 171.421875 135.175781 174.488281 135.175781 Z M 214.082031 146.285156 L 180.050781 146.285156 L 180.050781 180.316406 L 214.082031 180.316406 Z M 206.210938 196.988281 L 251.34375 196.988281 C 254.410156 196.988281 256.90625 199.484375 256.90625 202.550781 L 256.90625 247.6875 C 256.90625 250.753906 254.410156 253.25 251.34375 253.25 L 206.210938 253.25 C 203.144531 253.25 200.667969 250.753906 200.667969 247.6875 L 200.667969 202.550781 C 200.667969 199.484375 203.144531 196.988281 206.210938 196.988281 Z M 245.804688 208.113281 L 211.773438 208.113281 L 211.773438 242.148438 L 245.804688 242.148438 Z M 142.765625 196.988281 L 187.902344 196.988281 C 190.96875 196.988281 193.464844 199.484375 193.464844 202.550781 L 193.464844 247.6875 C 193.464844 250.753906 190.96875 253.25 187.902344 253.25 L 142.765625 253.25 C 139.699219 253.25 137.203125 250.753906 137.203125 247.6875 L 137.203125 202.550781 C 137.195312 199.484375 139.699219 196.988281 142.765625 196.988281 Z M 182.339844 208.113281 L 148.304688 208.113281 L 148.304688 242.148438 L 182.339844 242.148438 Z M 115.613281 308.324219 C 107.171875 295.222656 101.445312 280.230469 99.214844 264.105469 C 98.757812 260.789062 101.378906 257.8125 104.695312 257.789062 L 267.800781 257.789062 L 267.800781 124.324219 L 24.796875 124.324219 L 24.796875 308.324219 Z M 265.875 329.152344 C 282.503906 317.183594 295.25 300.175781 301.878906 280.378906 C 302.886719 277.140625 306.125 275.570312 309.121094 276.660156 C 321.847656 281.261719 336.230469 277.734375 345.398438 267.714844 C 340.890625 262.804688 334.984375 259.269531 328.394531 257.722656 L 328.417969 257.699219 C 324.765625 256.839844 322.957031 252.621094 324.996094 249.367188 C 328.644531 243.578125 330.410156 236.746094 330.121094 229.96875 C 310.972656 229.132812 295 244.5625 295 263.328125 C 295 266.417969 292.523438 268.890625 289.4375 268.890625 L 111.273438 268.890625 C 120.613281 314.300781 160.800781 347.726562 208.144531 347.726562 C 229.726562 347.726562 249.648438 340.84375 265.875 329.152344 Z M 265.875 329.152344 " fill-opacity="1" fill-rule="nonzero"/></g></svg>