<svg xmlns="http://www.w3.org/2000/svg" xmlns:xlink="http://www.w3.org/1999/xlink" width="500" zoomAndPan="magnify" viewBox="0 0 375 374.999991" height="500" preserveAspectRatio="xMidYMid meet" version="1.0"><defs><clipPath id="id1"><path d="M 0 15.265625 L 375 15.265625 L 375 359.515625 L 0 359.515625 Z M 0 15.265625 " clip-rule="nonzero"/></clipPath><clipPath id="id2"><path d="M 209.917969 186.367188 L 212.796875 191.4375 C 212.910156 191.675781 213.027344 191.914062 213.121094 192.160156 L 213.40625 192.875 L 214.1875 195.78125 C 214.226562 196.019531 214.265625 196.265625 214.292969 196.503906 C 214.445312 197.695312 214.464844 198.925781 214.351562 200.125 C 214.332031 200.363281 214.304688 200.613281 214.265625 200.851562 L 214.171875 201.480469 L 213.339844 204.46875 C 213.246094 204.71875 213.148438 204.957031 213.046875 205.195312 L 212.710938 205.917969 C 212.585938 206.167969 212.464844 206.40625 212.328125 206.644531 L 210.882812 208.816406 C 210.691406 209.0625 210.488281 209.300781 210.28125 209.539062 C 209.308594 210.636719 208.15625 211.636719 206.90625 212.4375 L 206.066406 212.949219 C 204.742188 213.703125 203.347656 214.253906 201.9375 214.609375 L 201.929688 214.609375 C 199.25 215.285156 196.484375 215.253906 193.882812 214.609375 L 191.671875 213.882812 C 190.707031 213.492188 189.773438 213.007812 188.886719 212.4375 C 188.21875 212.007812 187.582031 211.519531 186.980469 210.988281 C 186.476562 210.539062 185.988281 210.054688 185.53125 209.539062 C 185.320312 209.308594 185.121094 209.0625 184.929688 208.816406 L 183.480469 206.644531 L 167.179688 178.421875 L 103.019531 67.367188 L 103.046875 67.347656 L 102.34375 66.1875 C 102.191406 65.9375 102.035156 65.699219 101.875 65.460938 L 100.53125 63.554688 L 97.851562 60.394531 L 97.144531 59.667969 C 96.382812 58.90625 95.59375 58.183594 94.773438 57.496094 L 93.34375 56.355469 L 90.988281 54.707031 L 86.878906 52.417969 C 85.078125 51.550781 83.1875 50.828125 81.273438 50.253906 C 78.832031 49.53125 76.324219 49.035156 73.78125 48.808594 C 71.023438 48.550781 68.242188 48.597656 65.484375 48.949219 L 62.175781 49.53125 C 61.253906 49.742188 60.335938 49.980469 59.421875 50.253906 C 57.019531 50.988281 54.710938 51.953125 52.511719 53.152344 C 52.320312 53.257812 52.128906 53.363281 51.9375 53.464844 L 51.242188 53.867188 L 49.003906 55.316406 L 48 56.039062 C 47.695312 56.269531 47.402344 56.496094 47.113281 56.726562 L 45.378906 58.203125 L 44.359375 59.164062 L 42.519531 61.109375 C 42.308594 61.347656 42.101562 61.59375 41.898438 61.832031 L 40.210938 64.003906 L 39.429688 65.136719 L 38.761719 66.175781 L 37.515625 68.347656 L 36.789062 69.796875 C 36.675781 70.035156 36.5625 70.273438 36.457031 70.519531 L 35.550781 72.695312 L 34.796875 74.867188 L 34.378906 76.3125 L 34.1875 77.039062 L 33.851562 78.484375 C 33.804688 78.722656 33.757812 78.972656 33.710938 79.210938 L 33.207031 82.832031 C 33.15625 83.316406 33.128906 83.792969 33.101562 84.277344 C 33.089844 84.515625 33.082031 84.765625 33.070312 85.003906 C 33.050781 85.488281 33.050781 85.964844 33.050781 86.453125 L 33.242188 90.070312 C 33.289062 90.558594 33.347656 91.035156 33.414062 91.519531 C 33.453125 91.757812 33.480469 92.007812 33.519531 92.246094 L 33.785156 93.691406 L 34.710938 97.3125 L 35.1875 98.761719 C 35.273438 99 35.359375 99.246094 35.453125 99.484375 C 35.730469 100.21875 36.035156 100.941406 36.359375 101.65625 L 37.429688 103.828125 L 37.828125 104.554688 L 38.238281 105.277344 L 153.679688 305.101562 L 154.976562 307.273438 C 155.121094 307.523438 155.261719 307.761719 155.40625 307.996094 L 155.863281 308.722656 C 156.015625 308.96875 156.175781 309.207031 156.339844 309.445312 L 156.84375 310.171875 C 157.015625 310.417969 157.199219 310.65625 157.371094 310.894531 L 159.125 313.066406 L 160.457031 314.515625 L 161.421875 315.46875 L 163.613281 317.410156 L 164.929688 318.441406 L 167.675781 320.308594 L 168.941406 321.058594 L 172.976562 323.023438 L 177.3125 324.527344 L 181.03125 325.375 C 185.386719 326.148438 189.878906 326.167969 194.292969 325.375 L 197.515625 324.652344 C 200.078125 323.957031 202.546875 322.984375 204.894531 321.757812 L 206.21875 321.03125 L 207.5625 320.308594 L 210.300781 318.421875 L 211.910156 317.136719 C 213.625 315.675781 215.191406 314.085938 216.609375 312.351562 L 219.671875 308.007812 C 219.785156 307.816406 219.898438 307.617188 220.015625 307.417969 L 220.042969 307.4375 L 278.882812 205.585938 L 285.355469 194.390625 L 285.441406 194.246094 L 304.480469 161.300781 L 314.804688 143.4375 L 316.761719 140.054688 L 335.167969 108.195312 L 336.496094 105.886719 L 337.179688 104.640625 L 337.199219 104.648438 L 337.246094 104.5625 L 339.011719 100.941406 C 339.117188 100.703125 339.210938 100.464844 339.304688 100.21875 C 339.59375 99.503906 339.851562 98.78125 340.089844 98.046875 L 340.460938 96.847656 L 340.726562 95.875 L 341.222656 93.703125 C 341.316406 93.214844 341.402344 92.738281 341.480469 92.253906 C 341.519531 92.015625 341.554688 91.769531 341.585938 91.53125 C 341.652344 91.042969 341.707031 90.566406 341.757812 90.082031 L 341.898438 87.910156 C 341.917969 87.421875 341.929688 86.945312 341.929688 86.460938 C 341.929688 86.222656 341.929688 85.976562 341.917969 85.738281 L 341.863281 84.289062 L 341.707031 82.460938 L 341.480469 80.667969 C 341.441406 80.429688 341.402344 80.183594 341.355469 79.945312 L 341.078125 78.496094 L 340.738281 77.046875 L 340.546875 76.324219 C 340.480469 76.085938 340.414062 75.835938 340.335938 75.597656 L 339.355469 72.703125 L 338.4375 70.53125 C 338.324219 70.292969 338.21875 70.042969 338.097656 69.804688 L 337.734375 69.082031 C 337.609375 68.84375 337.484375 68.597656 337.351562 68.359375 L 336.53125 66.910156 L 335.1875 64.804688 L 333.519531 62.566406 L 331.621094 60.394531 C 331.394531 60.144531 331.15625 59.90625 330.925781 59.667969 C 330.171875 58.917969 329.390625 58.191406 328.5625 57.496094 L 326.730469 56.046875 L 325.53125 55.191406 L 324.625 54.601562 L 322.078125 53.152344 C 321.078125 52.617188 320.058594 52.132812 319.027344 51.703125 C 313.300781 49.292969 307.0625 48.386719 300.894531 49.007812 C 299.695312 49.132812 298.492188 49.304688 297.3125 49.53125 L 294.269531 50.253906 L 293.363281 50.523438 L 289.53125 51.933594 C 287.789062 52.675781 286.035156 53.601562 284.421875 54.601562 L 282.269531 56.046875 L 278.738281 58.945312 L 277.988281 59.667969 L 276.605469 61.117188 L 275.890625 61.925781 L 275.355469 62.566406 L 273.230469 65.460938 L 271.886719 67.632812 C 271.609375 68.109375 271.351562 68.597656 271.09375 69.082031 L 270.390625 70.53125 L 270.09375 71.1875 L 269.511719 72.589844 L 268.472656 75.597656 L 267.730469 78.496094 C 267.679688 78.734375 267.632812 78.980469 267.585938 79.21875 L 267.339844 80.667969 L 267.070312 82.839844 L 266.976562 84.089844 L 266.964844 84.289062 L 266.917969 85.738281 C 266.917969 85.976562 266.917969 86.222656 266.917969 86.460938 L 267.117188 90.082031 C 267.148438 90.320312 267.175781 90.566406 267.203125 90.804688 L 267.300781 91.511719 L 267.84375 94.425781 C 267.902344 94.664062 267.957031 94.910156 268.015625 95.148438 L 268.40625 96.597656 C 268.550781 97.085938 268.703125 97.570312 268.863281 98.046875 L 269.378906 99.496094 L 269.960938 100.941406 L 271.191406 103.507812 L 270.875 102.953125 L 277.632812 114.652344 L 280.511719 119.722656 C 280.628906 119.960938 280.742188 120.199219 280.835938 120.445312 L 281.125 121.160156 L 281.90625 124.066406 C 281.945312 124.304688 281.980469 124.550781 282.011719 124.789062 C 282.164062 125.980469 282.183594 127.210938 282.066406 128.410156 C 282.046875 128.648438 282.019531 128.898438 281.980469 129.136719 L 281.886719 129.765625 L 281.058594 132.753906 C 280.988281 133.003906 280.867188 133.242188 280.761719 133.480469 L 280.425781 134.203125 C 280.3125 134.453125 280.179688 134.691406 280.046875 134.929688 L 278.597656 137.101562 C 278.40625 137.347656 278.207031 137.585938 277.996094 137.824219 C 277.023438 138.921875 275.871094 139.921875 274.621094 140.722656 L 273.78125 141.234375 C 272.457031 141.988281 271.066406 142.539062 269.65625 142.894531 L 269.644531 142.894531 C 266.964844 143.570312 264.203125 143.542969 261.597656 142.894531 L 259.386719 142.167969 C 258.394531 141.84375 257.488281 141.292969 256.601562 140.722656 C 255.9375 140.292969 255.296875 139.804688 254.695312 139.273438 C 254.191406 138.824219 253.707031 138.339844 253.246094 137.824219 C 253.039062 137.597656 252.835938 137.347656 252.648438 137.101562 L 251.199219 134.929688 L 241.65625 118.40625 L 241.246094 117.605469 C 240.890625 116.890625 240.550781 116.167969 240.214844 115.433594 L 239.738281 114.347656 L 239.28125 113.261719 C 238.984375 112.546875 238.699219 111.8125 238.421875 111.089844 L 238.097656 110.214844 L 237.652344 108.925781 L 236.953125 106.753906 C 236.878906 106.515625 236.8125 106.269531 236.734375 106.03125 C 236.527344 105.304688 236.324219 104.582031 236.144531 103.859375 C 236.085938 103.621094 236.019531 103.382812 235.964844 103.132812 L 235.46875 100.960938 C 235.421875 100.722656 235.363281 100.476562 235.316406 100.238281 L 234.914062 98.066406 L 234.484375 95.167969 C 234.457031 94.929688 234.429688 94.683594 234.398438 94.445312 L 234.179688 92.273438 C 234.160156 92.035156 234.140625 91.785156 234.125 91.546875 L 233.960938 88.652344 L 233.960938 83.582031 C 233.972656 83.34375 233.980469 83.097656 233.988281 82.859375 C 234.027344 82.136719 234.066406 81.410156 234.125 80.6875 C 234.140625 80.449219 234.160156 80.203125 234.179688 79.964844 C 234.246094 79.238281 234.324219 78.515625 234.410156 77.789062 C 234.4375 77.550781 234.464844 77.304688 234.496094 77.066406 C 234.589844 76.34375 234.695312 75.617188 234.808594 74.894531 C 234.847656 74.65625 234.886719 74.410156 234.933594 74.171875 L 235.34375 71.996094 L 236 69.101562 L 236.582031 66.929688 L 237.242188 64.757812 C 237.316406 64.519531 237.394531 64.269531 237.480469 64.03125 C 237.71875 63.308594 237.976562 62.585938 238.242188 61.859375 L 238.652344 60.773438 L 240.003906 57.515625 C 240.109375 57.277344 240.226562 57.03125 240.328125 56.792969 L 241.378906 54.621094 C 241.625 54.132812 241.875 53.65625 242.121094 53.171875 L 243.351562 50.960938 L 245.5625 47.378906 C 245.726562 47.140625 245.886719 46.894531 246.050781 46.65625 L 247.585938 44.480469 L 249.40625 42.101562 L 249.625 41.824219 L 251.035156 40.136719 C 251.246094 39.890625 251.457031 39.652344 251.664062 39.414062 L 252.3125 38.6875 L 254.675781 36.222656 L 256.632812 34.355469 L 257.433594 33.628906 L 259.101562 32.183594 C 259.996094 31.429688 260.902344 30.707031 261.828125 30.007812 L 263.8125 28.5625 L 265.6875 27.285156 L 269.53125 24.941406 L 275.210938 22.042969 C 277.664062 20.929688 280.140625 19.976562 282.695312 19.148438 L 286.195312 18.117188 L 291.152344 16.984375 C 293.652344 16.507812 296.175781 16.15625 298.722656 15.957031 C 303.554688 15.566406 308.339844 15.652344 313.195312 16.261719 C 316.0625 16.625 318.378906 17.0625 321.089844 17.710938 L 323.84375 18.441406 C 326.742188 19.273438 329.125 20.148438 332.070312 21.367188 L 336.636719 23.511719 L 340.699219 25.789062 L 340.773438 25.835938 L 343.75 27.722656 L 346.019531 29.304688 C 346.667969 29.78125 347.304688 30.257812 347.933594 30.753906 L 351.414062 33.648438 L 354.484375 36.546875 C 354.722656 36.785156 354.960938 37.023438 355.199219 37.269531 L 358.476562 40.890625 C 358.679688 41.128906 358.878906 41.375 359.078125 41.613281 L 360.242188 43.0625 L 360.5 43.394531 L 362.875 46.683594 L 363.828125 48.132812 C 363.980469 48.371094 364.132812 48.617188 364.285156 48.855469 L 364.703125 49.53125 L 366 51.75 L 366.402344 52.476562 L 367.839844 55.257812 L 369.59375 59.125 L 370.679688 61.890625 L 371.445312 64.0625 C 371.519531 64.300781 371.605469 64.546875 371.683594 64.785156 L 372.128906 66.234375 L 372.65625 68.101562 L 373.425781 71.292969 C 373.484375 71.53125 373.53125 71.777344 373.578125 72.015625 L 374.4375 77.085938 C 374.464844 77.324219 374.503906 77.5625 374.53125 77.808594 L 374.960938 82.878906 C 374.972656 83.117188 374.980469 83.363281 374.992188 83.601562 L 375 88.671875 C 374.992188 88.910156 374.980469 89.15625 374.972656 89.394531 L 374.636719 93.738281 L 374.550781 94.464844 C 374.523438 94.703125 374.496094 94.949219 374.464844 95.1875 L 374.417969 95.589844 L 373.914062 98.808594 C 373.867188 99.046875 373.828125 99.292969 373.78125 99.53125 L 372.605469 104.601562 C 372.539062 104.839844 372.472656 105.085938 372.40625 105.324219 L 371.921875 106.972656 L 370.765625 110.386719 C 370.679688 110.625 370.585938 110.871094 370.5 111.109375 L 369.25 114.1875 L 369.011719 114.730469 L 368.59375 115.664062 L 367.648438 117.636719 C 367.527344 117.875 367.410156 118.121094 367.289062 118.359375 L 366.90625 119.082031 L 365.371094 121.847656 L 365.390625 121.867188 L 364.875 122.703125 L 330.992188 181.347656 L 323.746094 193.886719 L 323.527344 194.277344 L 304.488281 227.230469 L 251.53125 318.917969 L 248.59375 323.996094 L 248.625 324.015625 L 248.414062 324.375 L 245.640625 328.730469 L 243.292969 331.941406 L 240.921875 334.835938 C 240.710938 335.085938 240.5 335.324219 240.28125 335.5625 L 236.066406 339.90625 L 232.808594 342.800781 C 231.910156 343.546875 230.996094 344.269531 230.070312 344.976562 L 228.070312 346.421875 L 225.914062 347.871094 L 223.570312 349.320312 L 222.3125 350.042969 L 216.417969 353.015625 L 213.128906 354.386719 C 211.777344 354.914062 210.414062 355.398438 209.039062 355.835938 L 205.75 356.796875 L 200.421875 358.007812 C 198.847656 358.304688 197.257812 358.542969 195.664062 358.734375 C 187.363281 359.714844 179.125 359.210938 170.992188 357.285156 C 167.847656 356.53125 164.785156 355.570312 161.773438 354.386719 L 159.953125 353.644531 L 155.347656 351.492188 L 151.390625 349.273438 L 151.335938 349.234375 L 150.773438 348.890625 L 148.703125 347.585938 L 146.0625 345.765625 L 144.042969 344.25 L 143.105469 343.507812 L 139.589844 340.46875 L 136.101562 337 C 135.871094 336.761719 135.652344 336.515625 135.433594 336.277344 L 134.15625 334.828125 L 133.898438 334.523438 L 132.695312 333.074219 L 131.722656 331.835938 L 130.179688 329.75 L 128.558594 327.378906 L 126.871094 324.679688 L 125.984375 323.117188 L 125.230469 321.785156 L 10.21875 122.714844 L 9.628906 121.816406 L 8.828125 120.371094 L 8.171875 119.074219 L 8.019531 118.789062 L 6.054688 114.730469 L 6.042969 114.710938 L 4.558594 111.109375 C 4.460938 110.871094 4.375 110.625 4.289062 110.386719 L 3.738281 108.832031 L 2.25 103.867188 C 2.183594 103.628906 2.125 103.390625 2.070312 103.144531 L 1 98.074219 C 0.960938 97.835938 0.914062 97.597656 0.878906 97.351562 L 0.4375 94.140625 L 0.257812 92.28125 C 0.238281 92.042969 0.21875 91.796875 0.199219 91.558594 L 0 86.5 C 0 86.261719 0 86.011719 0 85.773438 L 0.21875 80.707031 C 0.238281 80.46875 0.257812 80.21875 0.277344 79.980469 L 0.417969 78.535156 L 1.164062 73.464844 C 1.210938 73.226562 1.25 72.980469 1.296875 72.742188 L 1.6875 70.855469 L 3.097656 65.507812 L 3.328125 64.785156 L 4.0625 62.613281 L 4.625 61.078125 C 5.566406 58.582031 6.722656 56 7.960938 53.636719 L 11.460938 47.636719 L 13.300781 44.9375 L 14.699219 43.0625 C 14.890625 42.816406 15.074219 42.578125 15.261719 42.339844 L 19.6875 37.269531 C 19.925781 37.023438 20.152344 36.785156 20.390625 36.546875 L 23.441406 33.648438 C 24.273438 32.90625 25.121094 32.183594 25.988281 31.476562 L 27.835938 30.027344 L 28.808594 29.304688 C 29.488281 28.808594 30.171875 28.332031 30.859375 27.855469 L 34.101562 25.742188 L 36.742188 24.253906 L 38.847656 23.160156 C 42.050781 21.566406 45.066406 20.300781 48.488281 19.167969 C 50.15625 18.625 51.824219 18.136719 53.511719 17.71875 L 56.742188 16.996094 C 58.191406 16.707031 59.652344 16.472656 61.101562 16.269531 C 67.335938 15.453125 73.445312 15.433594 79.746094 16.269531 L 79.757812 16.269531 L 84.285156 17.023438 C 88.441406 17.851562 92.523438 19.054688 96.46875 20.617188 L 101.988281 23.074219 L 105.527344 24.960938 L 109.082031 27.132812 L 112.226562 29.304688 L 113.601562 30.332031 L 117.585938 33.648438 L 118.492188 34.476562 L 120.636719 36.546875 C 120.875 36.785156 121.113281 37.03125 121.34375 37.269531 L 124.59375 40.890625 C 124.792969 41.128906 124.992188 41.367188 125.195312 41.613281 L 126.335938 43.0625 L 126.746094 43.605469 L 128.453125 45.957031 L 128.683594 46.292969 L 130.617188 49.265625 L 130.75 49.464844 L 132.132812 51.75 L 132.964844 53.199219 L 196.410156 163.015625 L 209.925781 186.40625 Z M 209.917969 186.367188 " clip-rule="evenodd"/></clipPath><linearGradient x1="432.51263" gradientTransform="matrix(0.953349, 0, 0, 0.952766, 0.0000045, 15.61331)" y1="44.430923" x2="31.27504" gradientUnits="userSpaceOnUse" y2="396.587222" id="id3"><stop stop-opacity="1" stop-color="rgb(0%, 66.281128%, 43.228149%)" offset="0"/><stop stop-opacity="1" stop-color="rgb(0%, 66.291809%, 43.469238%)" offset="0.00390625"/><stop stop-opacity="1" stop-color="rgb(0%, 66.304016%, 43.711853%)" offset="0.0078125"/><stop stop-opacity="1" stop-color="rgb(0%, 66.314697%, 43.952942%)" offset="0.0117188"/><stop stop-opacity="1" stop-color="rgb(0%, 66.325378%, 44.195557%)" offset="0.015625"/><stop stop-opacity="1" stop-color="rgb(0%, 66.33606%, 44.436646%)" offset="0.0195313"/><stop stop-opacity="1" stop-color="rgb(0%, 66.348267%, 44.677734%)" offset="0.0234375"/><stop stop-opacity="1" stop-color="rgb(0%, 66.358948%, 44.918823%)" offset="0.0273438"/><stop stop-opacity="1" stop-color="rgb(0%, 66.371155%, 45.161438%)" offset="0.03125"/><stop stop-opacity="1" stop-color="rgb(0%, 66.381836%, 45.402527%)" offset="0.0351562"/><stop stop-opacity="1" stop-color="rgb(0%, 66.392517%, 45.645142%)" offset="0.0390625"/><stop stop-opacity="1" stop-color="rgb(0%, 66.403198%, 45.88623%)" offset="0.0429688"/><stop stop-opacity="1" stop-color="rgb(0%, 66.415405%, 46.128845%)" offset="0.046875"/><stop stop-opacity="1" stop-color="rgb(0%, 66.426086%, 46.369934%)" offset="0.0507812"/><stop stop-opacity="1" stop-color="rgb(0%, 66.436768%, 46.612549%)" offset="0.0546875"/><stop stop-opacity="1" stop-color="rgb(0%, 66.447449%, 46.853638%)" offset="0.0585938"/><stop stop-opacity="1" stop-color="rgb(0%, 66.459656%, 47.094727%)" offset="0.0625"/><stop stop-opacity="1" stop-color="rgb(0%, 66.470337%, 47.335815%)" offset="0.0664062"/><stop stop-opacity="1" stop-color="rgb(0%, 66.481018%, 47.57843%)" offset="0.0703125"/><stop stop-opacity="1" stop-color="rgb(0%, 66.491699%, 47.819519%)" offset="0.0742188"/><stop stop-opacity="1" stop-color="rgb(0%, 66.503906%, 48.062134%)" offset="0.078125"/><stop stop-opacity="1" stop-color="rgb(0%, 66.514587%, 48.303223%)" offset="0.0820312"/><stop stop-opacity="1" stop-color="rgb(0%, 66.525269%, 48.545837%)" offset="0.0859375"/><stop stop-opacity="1" stop-color="rgb(0%, 66.53595%, 48.786926%)" offset="0.0898438"/><stop stop-opacity="1" stop-color="rgb(0%, 66.548157%, 49.029541%)" offset="0.09375"/><stop stop-opacity="1" stop-color="rgb(0%, 66.558838%, 49.27063%)" offset="0.0976562"/><stop stop-opacity="1" stop-color="rgb(0%, 66.569519%, 49.513245%)" offset="0.101562"/><stop stop-opacity="1" stop-color="rgb(0%, 66.5802%, 49.754333%)" offset="0.105469"/><stop stop-opacity="1" stop-color="rgb(0%, 66.592407%, 49.995422%)" offset="0.109375"/><stop stop-opacity="1" stop-color="rgb(0%, 66.603088%, 50.236511%)" offset="0.113281"/><stop stop-opacity="1" stop-color="rgb(0%, 66.615295%, 50.479126%)" offset="0.117187"/><stop stop-opacity="1" stop-color="rgb(0%, 66.625977%, 50.720215%)" offset="0.121094"/><stop stop-opacity="1" stop-color="rgb(0%, 66.636658%, 50.96283%)" offset="0.125"/><stop stop-opacity="1" stop-color="rgb(0%, 66.647339%, 51.203918%)" offset="0.128906"/><stop stop-opacity="1" stop-color="rgb(0%, 66.659546%, 51.446533%)" offset="0.132812"/><stop stop-opacity="1" stop-color="rgb(0%, 66.670227%, 51.687622%)" offset="0.136719"/><stop stop-opacity="1" stop-color="rgb(0%, 66.680908%, 51.930237%)" offset="0.140625"/><stop stop-opacity="1" stop-color="rgb(0%, 66.691589%, 52.171326%)" offset="0.144531"/><stop stop-opacity="1" stop-color="rgb(0%, 66.703796%, 52.412415%)" offset="0.148438"/><stop stop-opacity="1" stop-color="rgb(0%, 66.714478%, 52.653503%)" offset="0.152344"/><stop stop-opacity="1" stop-color="rgb(0%, 66.725159%, 52.896118%)" offset="0.15625"/><stop stop-opacity="1" stop-color="rgb(0%, 66.73584%, 53.137207%)" offset="0.160156"/><stop stop-opacity="1" stop-color="rgb(0%, 66.748047%, 53.379822%)" offset="0.164062"/><stop stop-opacity="1" stop-color="rgb(0%, 66.758728%, 53.620911%)" offset="0.167969"/><stop stop-opacity="1" stop-color="rgb(0%, 66.769409%, 53.863525%)" offset="0.171875"/><stop stop-opacity="1" stop-color="rgb(0%, 66.78009%, 54.104614%)" offset="0.175781"/><stop stop-opacity="1" stop-color="rgb(0%, 66.792297%, 54.347229%)" offset="0.179688"/><stop stop-opacity="1" stop-color="rgb(0%, 66.802979%, 54.588318%)" offset="0.183594"/><stop stop-opacity="1" stop-color="rgb(0%, 66.815186%, 54.830933%)" offset="0.1875"/><stop stop-opacity="1" stop-color="rgb(0%, 66.825867%, 55.072021%)" offset="0.191406"/><stop stop-opacity="1" stop-color="rgb(0%, 66.836548%, 55.31311%)" offset="0.195312"/><stop stop-opacity="1" stop-color="rgb(0%, 66.847229%, 55.554199%)" offset="0.199219"/><stop stop-opacity="1" stop-color="rgb(0%, 66.859436%, 55.796814%)" offset="0.203125"/><stop stop-opacity="1" stop-color="rgb(0%, 66.870117%, 56.037903%)" offset="0.207031"/><stop stop-opacity="1" stop-color="rgb(0%, 66.880798%, 56.280518%)" offset="0.210938"/><stop stop-opacity="1" stop-color="rgb(0%, 66.891479%, 56.521606%)" offset="0.214844"/><stop stop-opacity="1" stop-color="rgb(0%, 66.903687%, 56.764221%)" offset="0.21875"/><stop stop-opacity="1" stop-color="rgb(0%, 66.914368%, 57.00531%)" offset="0.222656"/><stop stop-opacity="1" stop-color="rgb(0%, 66.925049%, 57.247925%)" offset="0.226562"/><stop stop-opacity="1" stop-color="rgb(0%, 66.93573%, 57.489014%)" offset="0.230469"/><stop stop-opacity="1" stop-color="rgb(0%, 66.947937%, 57.730103%)" offset="0.234375"/><stop stop-opacity="1" stop-color="rgb(0%, 66.958618%, 57.971191%)" offset="0.238281"/><stop stop-opacity="1" stop-color="rgb(0%, 66.969299%, 58.213806%)" offset="0.242188"/><stop stop-opacity="1" stop-color="rgb(0%, 66.97998%, 58.454895%)" offset="0.246094"/><stop stop-opacity="1" stop-color="rgb(0%, 66.992188%, 58.69751%)" offset="0.25"/><stop stop-opacity="1" stop-color="rgb(0%, 67.002869%, 58.938599%)" offset="0.253906"/><stop stop-opacity="1" stop-color="rgb(0%, 67.01355%, 59.181213%)" offset="0.257812"/><stop stop-opacity="1" stop-color="rgb(0%, 67.024231%, 59.422302%)" offset="0.261719"/><stop stop-opacity="1" stop-color="rgb(0%, 67.036438%, 59.664917%)" offset="0.265625"/><stop stop-opacity="1" stop-color="rgb(0%, 67.047119%, 59.906006%)" offset="0.269531"/><stop stop-opacity="1" stop-color="rgb(0%, 67.059326%, 60.147095%)" offset="0.273438"/><stop stop-opacity="1" stop-color="rgb(0%, 67.070007%, 60.388184%)" offset="0.277344"/><stop stop-opacity="1" stop-color="rgb(0%, 67.080688%, 60.630798%)" offset="0.28125"/><stop stop-opacity="1" stop-color="rgb(0%, 67.09137%, 60.871887%)" offset="0.285156"/><stop stop-opacity="1" stop-color="rgb(0%, 67.103577%, 61.114502%)" offset="0.289062"/><stop stop-opacity="1" stop-color="rgb(0%, 67.114258%, 61.355591%)" offset="0.292969"/><stop stop-opacity="1" stop-color="rgb(0%, 67.124939%, 61.598206%)" offset="0.296875"/><stop stop-opacity="1" stop-color="rgb(0%, 67.13562%, 61.839294%)" offset="0.300781"/><stop stop-opacity="1" stop-color="rgb(0%, 67.147827%, 62.081909%)" offset="0.304688"/><stop stop-opacity="1" stop-color="rgb(0%, 67.158508%, 62.322998%)" offset="0.308594"/><stop stop-opacity="1" stop-color="rgb(0%, 67.169189%, 62.565613%)" offset="0.3125"/><stop stop-opacity="1" stop-color="rgb(0%, 67.179871%, 62.806702%)" offset="0.316406"/><stop stop-opacity="1" stop-color="rgb(0%, 67.192078%, 63.047791%)" offset="0.320313"/><stop stop-opacity="1" stop-color="rgb(0%, 67.202759%, 63.288879%)" offset="0.324219"/><stop stop-opacity="1" stop-color="rgb(0%, 67.21344%, 63.531494%)" offset="0.328125"/><stop stop-opacity="1" stop-color="rgb(0%, 67.224121%, 63.772583%)" offset="0.332031"/><stop stop-opacity="1" stop-color="rgb(0%, 67.236328%, 64.015198%)" offset="0.335938"/><stop stop-opacity="1" stop-color="rgb(0%, 67.247009%, 64.256287%)" offset="0.339844"/><stop stop-opacity="1" stop-color="rgb(0%, 67.25769%, 64.498901%)" offset="0.34375"/><stop stop-opacity="1" stop-color="rgb(0%, 67.268372%, 64.73999%)" offset="0.347656"/><stop stop-opacity="1" stop-color="rgb(0%, 67.280579%, 64.982605%)" offset="0.351563"/><stop stop-opacity="1" stop-color="rgb(0%, 67.29126%, 65.223694%)" offset="0.355469"/><stop stop-opacity="1" stop-color="rgb(0%, 67.303467%, 65.464783%)" offset="0.359375"/><stop stop-opacity="1" stop-color="rgb(0%, 67.314148%, 65.705872%)" offset="0.363281"/><stop stop-opacity="1" stop-color="rgb(0%, 67.324829%, 65.948486%)" offset="0.367188"/><stop stop-opacity="1" stop-color="rgb(0%, 67.33551%, 66.189575%)" offset="0.371094"/><stop stop-opacity="1" stop-color="rgb(0%, 67.347717%, 66.43219%)" offset="0.375"/><stop stop-opacity="1" stop-color="rgb(0%, 67.358398%, 66.673279%)" offset="0.378906"/><stop stop-opacity="1" stop-color="rgb(0%, 67.36908%, 66.915894%)" offset="0.382812"/><stop stop-opacity="1" stop-color="rgb(0%, 67.379761%, 67.156982%)" offset="0.386719"/><stop stop-opacity="1" stop-color="rgb(0%, 67.391968%, 67.399597%)" offset="0.390625"/><stop stop-opacity="1" stop-color="rgb(0%, 67.402649%, 67.640686%)" offset="0.394531"/><stop stop-opacity="1" stop-color="rgb(0%, 67.41333%, 67.883301%)" offset="0.398437"/><stop stop-opacity="1" stop-color="rgb(0%, 67.424011%, 68.12439%)" offset="0.402344"/><stop stop-opacity="1" stop-color="rgb(0%, 67.436218%, 68.365479%)" offset="0.40625"/><stop stop-opacity="1" stop-color="rgb(0%, 67.446899%, 68.606567%)" offset="0.410156"/><stop stop-opacity="1" stop-color="rgb(0%, 67.457581%, 68.849182%)" offset="0.414063"/><stop stop-opacity="1" stop-color="rgb(0%, 67.468262%, 69.090271%)" offset="0.417969"/><stop stop-opacity="1" stop-color="rgb(0%, 67.480469%, 69.332886%)" offset="0.421875"/><stop stop-opacity="1" stop-color="rgb(0%, 67.49115%, 69.573975%)" offset="0.425781"/><stop stop-opacity="1" stop-color="rgb(0%, 67.501831%, 69.816589%)" offset="0.429688"/><stop stop-opacity="1" stop-color="rgb(0%, 67.512512%, 70.057678%)" offset="0.433594"/><stop stop-opacity="1" stop-color="rgb(0%, 67.524719%, 70.300293%)" offset="0.4375"/><stop stop-opacity="1" stop-color="rgb(0%, 67.5354%, 70.541382%)" offset="0.441406"/><stop stop-opacity="1" stop-color="rgb(0%, 67.547607%, 70.782471%)" offset="0.445312"/><stop stop-opacity="1" stop-color="rgb(0%, 67.558289%, 71.02356%)" offset="0.449219"/><stop stop-opacity="1" stop-color="rgb(0%, 67.56897%, 71.266174%)" offset="0.453125"/><stop stop-opacity="1" stop-color="rgb(0%, 67.579651%, 71.507263%)" offset="0.457031"/><stop stop-opacity="1" stop-color="rgb(0%, 67.591858%, 71.749878%)" offset="0.460937"/><stop stop-opacity="1" stop-color="rgb(0%, 67.602539%, 71.990967%)" offset="0.464844"/><stop stop-opacity="1" stop-color="rgb(0%, 67.61322%, 72.233582%)" offset="0.46875"/><stop stop-opacity="1" stop-color="rgb(0%, 67.623901%, 72.47467%)" offset="0.472656"/><stop stop-opacity="1" stop-color="rgb(0%, 67.636108%, 72.717285%)" offset="0.476563"/><stop stop-opacity="1" stop-color="rgb(0%, 67.64679%, 72.958374%)" offset="0.480469"/><stop stop-opacity="1" stop-color="rgb(0%, 67.657471%, 73.199463%)" offset="0.484375"/><stop stop-opacity="1" stop-color="rgb(0%, 67.668152%, 73.440552%)" offset="0.488281"/><stop stop-opacity="1" stop-color="rgb(0%, 67.680359%, 73.683167%)" offset="0.492188"/><stop stop-opacity="1" stop-color="rgb(0%, 67.69104%, 73.924255%)" offset="0.496094"/><stop stop-opacity="1" stop-color="rgb(0%, 67.701721%, 74.16687%)" offset="0.5"/><stop stop-opacity="1" stop-color="rgb(0%, 67.712402%, 74.407959%)" offset="0.503906"/><stop stop-opacity="1" stop-color="rgb(0%, 67.724609%, 74.650574%)" offset="0.507812"/><stop stop-opacity="1" stop-color="rgb(0%, 67.735291%, 74.891663%)" offset="0.511719"/><stop stop-opacity="1" stop-color="rgb(0%, 67.747498%, 75.134277%)" offset="0.515625"/><stop stop-opacity="1" stop-color="rgb(0%, 67.758179%, 75.375366%)" offset="0.519531"/><stop stop-opacity="1" stop-color="rgb(0%, 67.76886%, 75.617981%)" offset="0.523437"/><stop stop-opacity="1" stop-color="rgb(0%, 67.779541%, 75.85907%)" offset="0.527344"/><stop stop-opacity="1" stop-color="rgb(0%, 67.791748%, 76.100159%)" offset="0.53125"/><stop stop-opacity="1" stop-color="rgb(0%, 67.802429%, 76.341248%)" offset="0.535156"/><stop stop-opacity="1" stop-color="rgb(0%, 67.81311%, 76.583862%)" offset="0.539063"/><stop stop-opacity="1" stop-color="rgb(0%, 67.823792%, 76.824951%)" offset="0.542969"/><stop stop-opacity="1" stop-color="rgb(0%, 67.835999%, 77.067566%)" offset="0.546875"/><stop stop-opacity="1" stop-color="rgb(0%, 67.84668%, 77.308655%)" offset="0.550781"/><stop stop-opacity="1" stop-color="rgb(0%, 67.857361%, 77.55127%)" offset="0.554688"/><stop stop-opacity="1" stop-color="rgb(0%, 67.868042%, 77.792358%)" offset="0.558594"/><stop stop-opacity="1" stop-color="rgb(0%, 67.880249%, 78.034973%)" offset="0.5625"/><stop stop-opacity="1" stop-color="rgb(0%, 67.89093%, 78.276062%)" offset="0.566406"/><stop stop-opacity="1" stop-color="rgb(0%, 67.901611%, 78.517151%)" offset="0.570312"/><stop stop-opacity="1" stop-color="rgb(0%, 67.912292%, 78.75824%)" offset="0.574219"/><stop stop-opacity="1" stop-color="rgb(0%, 67.9245%, 79.000854%)" offset="0.578125"/><stop stop-opacity="1" stop-color="rgb(0%, 67.935181%, 79.241943%)" offset="0.582031"/><stop stop-opacity="1" stop-color="rgb(0%, 67.945862%, 79.484558%)" offset="0.585937"/><stop stop-opacity="1" stop-color="rgb(0%, 67.956543%, 79.725647%)" offset="0.589844"/><stop stop-opacity="1" stop-color="rgb(0%, 67.96875%, 79.968262%)" offset="0.59375"/><stop stop-opacity="1" stop-color="rgb(0%, 67.979431%, 80.209351%)" offset="0.597656"/><stop stop-opacity="1" stop-color="rgb(0%, 67.991638%, 80.451965%)" offset="0.601562"/><stop stop-opacity="1" stop-color="rgb(0%, 68.002319%, 80.693054%)" offset="0.605469"/><stop stop-opacity="1" stop-color="rgb(0%, 68.013%, 80.934143%)" offset="0.609375"/><stop stop-opacity="1" stop-color="rgb(0%, 68.023682%, 81.175232%)" offset="0.613281"/><stop stop-opacity="1" stop-color="rgb(0%, 68.035889%, 81.417847%)" offset="0.617188"/><stop stop-opacity="1" stop-color="rgb(0%, 68.04657%, 81.658936%)" offset="0.621094"/><stop stop-opacity="1" stop-color="rgb(0%, 68.057251%, 81.90155%)" offset="0.625"/><stop stop-opacity="1" stop-color="rgb(0%, 68.067932%, 82.142639%)" offset="0.628906"/><stop stop-opacity="1" stop-color="rgb(0%, 68.080139%, 82.385254%)" offset="0.632812"/><stop stop-opacity="1" stop-color="rgb(0%, 68.09082%, 82.626343%)" offset="0.636719"/><stop stop-opacity="1" stop-color="rgb(0%, 68.101501%, 82.868958%)" offset="0.640625"/><stop stop-opacity="1" stop-color="rgb(0%, 68.112183%, 83.110046%)" offset="0.644531"/><stop stop-opacity="1" stop-color="rgb(0%, 68.12439%, 83.352661%)" offset="0.648437"/><stop stop-opacity="1" stop-color="rgb(0%, 68.135071%, 83.59375%)" offset="0.652344"/><stop stop-opacity="1" stop-color="rgb(0%, 68.145752%, 83.834839%)" offset="0.65625"/><stop stop-opacity="1" stop-color="rgb(0%, 68.156433%, 84.075928%)" offset="0.660156"/><stop stop-opacity="1" stop-color="rgb(0%, 68.16864%, 84.318542%)" offset="0.664062"/><stop stop-opacity="1" stop-color="rgb(0%, 68.179321%, 84.559631%)" offset="0.667969"/><stop stop-opacity="1" stop-color="rgb(0%, 68.190002%, 84.802246%)" offset="0.671875"/><stop stop-opacity="1" stop-color="rgb(0%, 68.200684%, 85.043335%)" offset="0.675781"/><stop stop-opacity="1" stop-color="rgb(0%, 68.212891%, 85.28595%)" offset="0.679688"/><stop stop-opacity="1" stop-color="rgb(0%, 68.223572%, 85.527039%)" offset="0.683594"/><stop stop-opacity="1" stop-color="rgb(0%, 68.235779%, 85.769653%)" offset="0.6875"/><stop stop-opacity="1" stop-color="rgb(0%, 68.24646%, 86.010742%)" offset="0.691406"/><stop stop-opacity="1" stop-color="rgb(0%, 68.257141%, 86.251831%)" offset="0.695312"/><stop stop-opacity="1" stop-color="rgb(0%, 68.267822%, 86.49292%)" offset="0.699219"/><stop stop-opacity="1" stop-color="rgb(0%, 68.280029%, 86.735535%)" offset="0.703125"/><stop stop-opacity="1" stop-color="rgb(0%, 68.29071%, 86.976624%)" offset="0.707031"/><stop stop-opacity="1" stop-color="rgb(0%, 68.301392%, 87.219238%)" offset="0.710938"/><stop stop-opacity="1" stop-color="rgb(0%, 68.312073%, 87.460327%)" offset="0.714844"/><stop stop-opacity="1" stop-color="rgb(0%, 68.32428%, 87.702942%)" offset="0.71875"/><stop stop-opacity="1" stop-color="rgb(0%, 68.334961%, 87.944031%)" offset="0.722656"/><stop stop-opacity="1" stop-color="rgb(0%, 68.345642%, 88.186646%)" offset="0.726562"/><stop stop-opacity="1" stop-color="rgb(0%, 68.356323%, 88.427734%)" offset="0.730469"/><stop stop-opacity="1" stop-color="rgb(0%, 68.36853%, 88.670349%)" offset="0.734375"/><stop stop-opacity="1" stop-color="rgb(0%, 68.379211%, 88.911438%)" offset="0.738281"/><stop stop-opacity="1" stop-color="rgb(0%, 68.389893%, 89.152527%)" offset="0.742187"/><stop stop-opacity="1" stop-color="rgb(0%, 68.400574%, 89.393616%)" offset="0.746094"/><stop stop-opacity="1" stop-color="rgb(0%, 68.412781%, 89.63623%)" offset="0.75"/><stop stop-opacity="1" stop-color="rgb(0%, 68.423462%, 89.877319%)" offset="0.753906"/><stop stop-opacity="1" stop-color="rgb(0%, 68.434143%, 90.119934%)" offset="0.757813"/><stop stop-opacity="1" stop-color="rgb(0%, 68.444824%, 90.361023%)" offset="0.761719"/><stop stop-opacity="1" stop-color="rgb(0%, 68.457031%, 90.603638%)" offset="0.765625"/><stop stop-opacity="1" stop-color="rgb(0%, 68.467712%, 90.844727%)" offset="0.769531"/><stop stop-opacity="1" stop-color="rgb(0%, 68.479919%, 91.087341%)" offset="0.773438"/><stop stop-opacity="1" stop-color="rgb(0%, 68.490601%, 91.32843%)" offset="0.777344"/><stop stop-opacity="1" stop-color="rgb(0%, 68.501282%, 91.569519%)" offset="0.78125"/><stop stop-opacity="1" stop-color="rgb(0%, 68.511963%, 91.810608%)" offset="0.785156"/><stop stop-opacity="1" stop-color="rgb(0%, 68.52417%, 92.053223%)" offset="0.789062"/><stop stop-opacity="1" stop-color="rgb(0%, 68.534851%, 92.294312%)" offset="0.792969"/><stop stop-opacity="1" stop-color="rgb(0%, 68.545532%, 92.536926%)" offset="0.796875"/><stop stop-opacity="1" stop-color="rgb(0%, 68.556213%, 92.778015%)" offset="0.800781"/><stop stop-opacity="1" stop-color="rgb(0%, 68.56842%, 93.02063%)" offset="0.804688"/><stop stop-opacity="1" stop-color="rgb(0%, 68.579102%, 93.261719%)" offset="0.808594"/><stop stop-opacity="1" stop-color="rgb(0%, 68.589783%, 93.504333%)" offset="0.8125"/><stop stop-opacity="1" stop-color="rgb(0%, 68.59436%, 93.60199%)" offset="0.875"/><stop stop-opacity="1" stop-color="rgb(0%, 68.598938%, 93.699646%)" offset="1"/></linearGradient></defs><g clip-path="url(#id1)"><g clip-path="url(#id2)"><path fill="url(#id3)" d="M 0 15.433594 L 0 359.515625 L 375 359.515625 L 375 15.433594 Z M 0 15.433594 " fill-rule="nonzero"/></g></g></svg>